/* XPM */
static char *_205bb94999244e6e2b6f31742c05a83T5CnHNUot55PVjB6[] = {
/* columns rows colors chars-per-pixel */
"64 64 252 2 ",
"   c #0C0807",
".  c #0B0E0D",
"X  c #110C0C",
"o  c #0C110F",
"O  c #13100E",
"+  c #0E1512",
"@  c #121514",
"#  c #1D1413",
"$  c #121916",
"%  c #1B1B16",
"&  c #151A19",
"*  c #1B1C1B",
"=  c #261B19",
"-  c #371D13",
";  c #1D201D",
":  c #2A221C",
">  c #37261B",
",  c #201C20",
"<  c #1F2221",
"1  c #232323",
"2  c #292725",
"3  c #2A2B2A",
"4  c #362A26",
"5  c #3C2B23",
"6  c #36322C",
"7  c #322F30",
"8  c #343333",
"9  c #383737",
"0  c #3D3C3B",
"q  c #4C2D1C",
"w  c #442B23",
"e  c #493329",
"r  c #533423",
"t  c #59392B",
"y  c #463A36",
"u  c #573B31",
"i  c #693C29",
"p  c #653E33",
"a  c #58402E",
"s  c #46423D",
"d  c #5B4438",
"f  c #66432C",
"g  c #76442D",
"h  c #644434",
"j  c #694837",
"k  c #774B38",
"l  c #74513C",
"z  c #7B533D",
"x  c #453F41",
"c  c #394A43",
"v  c #464342",
"b  c #4A4544",
"n  c #4E4A48",
"m  c #544B43",
"M  c #524D4C",
"N  c #5B544B",
"B  c #59554D",
"V  c #4D5451",
"C  c #565251",
"Z  c #5B5554",
"A  c #5D5A59",
"S  c #6E4C42",
"D  c #6D5345",
"F  c #625B4C",
"G  c #7C5541",
"H  c #785746",
"J  c #635C53",
"K  c #635C5B",
"L  c #795B53",
"P  c #6B614F",
"I  c #696255",
"U  c #786657",
"Y  c #576560",
"T  c #6B6362",
"R  c #6C6861",
"E  c #726B66",
"W  c #746C6A",
"Q  c #786C68",
"!  c #73736E",
"~  c #767776",
"^  c #7E7675",
"/  c #834B38",
"(  c #85543D",
")  c #97593E",
"_  c #845B45",
"`  c #875946",
"'  c #8C5B45",
"]  c #925B44",
"[  c #965C49",
"{  c #815E55",
"}  c #B8514D",
"|  c #8A6348",
" . c #8B624B",
".. c #96664A",
"X. c #94644C",
"o. c #9B644C",
"O. c #9D6B4D",
"+. c #866756",
"@. c #966856",
"#. c #9C6B53",
"$. c #8C745E",
"%. c #99735A",
"&. c #A6684D",
"*. c #A36C53",
"=. c #A56956",
"-. c #AD6E53",
";. c #B56B56",
":. c #A57254",
">. c #AA7456",
",. c #A6745A",
"<. c #AC745B",
"1. c #AC795B",
"2. c #B47154",
"3. c #BB7355",
"4. c #B07B57",
"5. c #B3745B",
"6. c #BC755B",
"7. c #B47A5C",
"8. c #BB7B5D",
"9. c #8D7266",
"0. c #987964",
"q. c #837A77",
"w. c #867A75",
"e. c #837B7A",
"r. c #A87A65",
"t. c #B57B62",
"y. c #B57A66",
"u. c #BB7C63",
"i. c #B2766B",
"p. c #CB5E59",
"a. c #C66A5D",
"s. c #C5775B",
"d. c #C37B5C",
"f. c #C27D63",
"g. c #CC7E62",
"h. c #C77868",
"j. c #D2756C",
"k. c #BB825D",
"l. c #988268",
"z. c #87807B",
"x. c #8A837D",
"c. c #98877B",
"v. c #A8846B",
"b. c #BC8363",
"n. c #B78669",
"m. c #BB836B",
"M. c #AA8873",
"N. c #B78875",
"B. c #AA927C",
"V. c #BB9579",
"C. c #C0835F",
"Z. c #C48264",
"A. c #CB8364",
"S. c #C78966",
"D. c #C3846B",
"F. c #CB856B",
"G. c #C38A6C",
"H. c #CC8A6B",
"J. c #D18466",
"K. c #D58A67",
"L. c #D3866B",
"P. c #D8876F",
"I. c #D48B6C",
"U. c #D98D6C",
"Y. c #C5916D",
"T. c #CC936D",
"R. c #D4956E",
"E. c #DB936D",
"W. c #D7996E",
"Q. c #C28A73",
"!. c #CD8C72",
"~. c #C88874",
"^. c #D38C73",
"/. c #D68877",
"(. c #DB8D71",
"). c #CE9473",
"_. c #C99679",
"`. c #C49C7B",
"'. c #D49373",
"]. c #DD9373",
"[. c #D49A74",
"{. c #DC9B74",
"}. c #D3947D",
"|. c #DB947B",
" X c #D49B7B",
".X c #DB9C7C",
"XX c #E18F75",
"oX c #E19576",
"OX c #E29B75",
"+X c #E2967A",
"@X c #E39C7A",
"#X c #E89E7B",
"$X c #CAA37E",
"%X c #D4A47C",
"&X c #DCA27D",
"*X c #DCA77C",
"=X c #E3A077",
"-X c #E4A37C",
";X c #E5A67D",
":X c #8B8381",
">X c #898A89",
",X c #959393",
"<X c #B79584",
"1X c #BEA084",
"2X c #AAADAD",
"3X c #C79884",
"4X c #D69A84",
"5X c #DC9C82",
"6X c #E58D82",
"7X c #E49C82",
"8X c #E69884",
"9X c #CCA483",
"0X c #CAA686",
"qX c #D3A584",
"wX c #DDA483",
"eX c #D4AA84",
"rX c #DBAC84",
"tX c #D4A38A",
"yX c #DBA48A",
"uX c #D5AC8A",
"iX c #DBAD8B",
"pX c #D6B089",
"aX c #DCB28B",
"sX c #D8AB93",
"dX c #DCB391",
"fX c #E2A583",
"gX c #E9A383",
"hX c #E2AB85",
"jX c #E4A48B",
"kX c #E4AC8B",
"lX c #EAA888",
"zX c #EAAC8C",
"xX c #E4B084",
"cX c #E3B38D",
"vX c #EAB28D",
"bX c #E6AA94",
"nX c #EBAC93",
"mX c #F0AF90",
"MX c #E4B492",
"NX c #ECB493",
"BX c #EBBA95",
"VX c #EDB69A",
"CX c #E5BA99",
"ZX c #EDBB9B",
"AX c #F0BA9B",
"SX c #EBBBA3",
"DX c #F1BFA1",
"FX c #F1C19F",
"GX c #F3C2A3",
"HX c #F2C6A9",
"JX c #EFCCB2",
"KX c #F8EBD1",
/* pixels */
"e.^ A s N N F $.v.n.T.[.T.T.W.W.E.W.E.E.E.E.E.E.E.E.E.E.U.U.U.U.K.K.K.K.K.K.K.g.s.s.3.3.&.) f r 5 % = = = C ! ! A A K T ,X,XW ^ ",
"e.q.N N A P U %.n.T.T.W.W.W.W.W.E.E.W.OXE.E.E.E.E.E.E.OXOXE.K.K.K.K.K.K.K.K.J.g.J.s.3.3.2.) ) f 5 : 4 O # v V 0 M C Y T ,X,XW W ",
"q.W s m P P | l.k.T.T.T.W.OXW.{.OXOXOXOXOXOXE.E.E.XXOXE.E.E.U.U.E.K.K.U.K.K.J.g.s.s.s.2.2.&.&.( r : 4 = @ 9 ~ V b C A K ,X>XT W ",
"^ K m N N P $.v.V.W.W.W.W.W.W.=X=XOX=X=X=X=XOXOXOXOXOXOXOXE.E.E.K.K.E.K.K.K.J.g.s.s.s.2.2.2.&.) j u 4 = 1 3 ! ~ 0 M M C ,X~ T W ",
"q.K N F F U l.k.Y.T.R.W.W.W.=X;X=X=X=X#XOXOX#X#XOXOX#XOXOXXXE.U.U.K.K.U.K.K.K.g.g.s.s.s.2.2.-.&.` d = 5 = = 3 9 9 x x A >XA K W ",
"q.Z J N F $.v.n.T.R.W.W.W.=X=X;X=X#X=X#X=X#XOX#X#X#X#XOXOXOXXXE.U.P.K.K.K.K.K.J.A.s.s.s.3.2.2.&.] S 5 6 # X # 2 7 x b A >XA T T ",
"Q N F N P $.v.V.%X%X{.&XOX#X=X;X;X;X=X=X=X=X#XOXOX#XXX#XOX#XXXU.U.U.P.K.K.K.J.J.A.s.s.3.3.2.2.-.X.G u 4 #   # , 3 7 0 ~ 2XA A K ",
"E F J A U 0.N.`.%X%XwX-X&X=X;X;X;X;X=X=XOX#XOXOXOXOXOXXXXXoXoXXXU.XXU.J.g.J.J.J.s.s.s.s.s.3.2.-.o.z j 5 #   @ * , 3 9 M K Z T W ",
"! F B B Q l.N._.%XrXkXwX-X&X-X;X=X;X=X=X=XOXOXoX+X{.oXoXoX+XoXXXXXU.U.K.L.J.J.L.J.g.s.s.d.3.2.-.o.z j y =   . & , , 8 0 b C A W ",
"! I J P U $.N.$XeXpXcXcXhXfXhX;X;X=X=X=X=XOXOX+X+X+XoXoX].(.oXoXU.XX(.K.J.J.J.g.g.d.d.s.d.3.2.-.O.z j u - . o $ , , 3 9 v n C A ",
"E I P P U l.N.$X%XpXcXkXhXfX*X-X=X=X=X-X=X-X#X#XoX#X+X+XoXoXoXoXXX].(.P.J.g.J.A.J.g.s.d.6.3.2.>.o.z t r 5 X   @ $ , 1 8 x n C C ",
"E R F P U l.V.9XpXaXcXcXhXhX-XwX&X-X#X=X;XlXgXgXgXgX#X+X#X+X+X+X].XX].XXK.A.J.F.g.J.d.C.d.6.2.&...( t q =   . o . & , 3 8 b C A ",
"Q R F P U l.V.qXuXaXMXcXhXfX&X.X|.fXfX5X7XbXnXnXMXNXlX8X8XgX7X8X+X#X6X+X/.P.L.A.g.A.d.f.d.6.2.&.[ ( i e = O O c V Y Y ~ >X2X2X2X",
"Q P I P U M.$XeXdXaXaXaXrXwX X X X X.XwXjXbXVXSXGXJXZXbXjXlXnXnX7XzXbX8X|./.F.h.Z.f.6.h.8.5.2.&...( j r > 2   % & & & 3 9 Y ~ ~ ",
"R I F F $.<XeXiXaXiXiXiX4XQ.~._.4XtX3X~.yXsXSXbXHXJXJXHXSXVXVXnXnXnXnX4X!./.D.~.u.u.y.t.u.7.-.&.o.' k r e 0 . + + + @ * 3 0 x M ",
"R F F P v.9XuXaXaXiXuXV.r.v.M.V.<X<X<X<X3X3X3X4XVXHXJXJXHXVXnXjXjXjX8X4X~.u.N.m.Q.y.r.<.<.5.*.o...] z t 5 7 + + o o + , 3 0 b V ",
"! F P U `.pXpXpXdXqXV.r.M.v.0.0.9.L L L L L 0.Q.3XjXSXHXAXjXjXjX4X4Xi.i.0.r.0.@.r.r.@.+.@.=.=.[ X.[ z h w 7 * # O + o & 3 9 x M ",
"! s s l.$X$XpXpXsX<X0.9.9.9.{ { S j u p p S H 0.N._.jXCXMX@X5X7X/.i.@.S d u m S K S L L D S +.X.' ' z h e : 1 @ X + o @ 1 9 v Z ",
"E N F l.0XpXdX0X3X0.+.9.+.9.r.r.m.m.n.m.n.n.r.=.1.Q.yXBXzX'.'.}.Q.@.` H p u q q u w u h J d u G _ ( z h y 4 3 # . . . @ 2 0 b C ",
"E s F l.0XpXpX0X%.U 9.@.r._.}._.Q.D.m.D.Y._.).~.m.Q.yXMXlX^.F.Q.r.[ o.{ [ =.%.=.<.@.` p S y w r G _ k h e 4 : * . . . @ 2 9 b n ",
"E 0 n l.0XpXpX0XM.l.V.3X_.4X3X4X^.!.H.!.).).'.[.%X XyXcXfXH.8.t.,.=.>.*.>.5.D.h.D.D.Q.N. .p w - t G l a e : = @ . . . O 2 9 b C ",
"R s F l.0XpXpX$XV.0XsXyX X5X5X4X~.y.t.h.D.^.!.'.%XqXyXkX5XA.-.&.&.,.<.5.f.h.!.!.~.Q.m.G.Q.r.G - - j l j 5 = = o . . . + 1 9 v M ",
"Q s P l.0XpXuX9XeXCXbXqXyX4Xi.@.` ` / =.5.F.I.).[.qXrXjX'.Z.-.[ =.<.;.f.F.f.m.h.y.y.y.t.Q.m.r.j > r f h 5 : : . . o . + 1 9 b C ",
"U s F 0.`.uXuXuXdXBXkX%X_.v.<XL +.S p Q.D.s.!. X4X%XrXwX|.I.;.] &.-.D.h.h.r.` @.` / ' o.<.u.y.X.f f l j 5 6 = o . . . X 1 8 b A ",
"+.d P l.9XuXpXdXCXFXdX3X%.sXJX0.` j ` /.4X/./.7XwX XyXyX|.].f.[ [ t.!.6.~.3X{ L r f ` k X.i.y.*.z l G D y = # X . . X + = 8 v C ",
"b.L I l.0XuXdXCXFXdXiXQ.N.4XJX<X/ ( =.4X^.j.^. X[. XqXjX8X(.F.=.X.5.;.~.bX3XG u r g i.%.k t.u.,. .G G H u 4 # . . X   . , 7 x C ",
"5X,.P l.0XiXpXMXCXCXiXbXyX_.}.3XQ.~.~.^.|.5XwX).).wXyXjX7X(.P.;.] =.D.h./.3X` i i ' <Xi.k ] y.<.#.` _ S e 2 = = u h r . < 9 y n ",
"BX9XU l.qXiXpXCXZXMXMXMXMXiX4X4X4X8X4X5X5X4X}.}.yXyXkXkXlX/.L.6.] ,.D././.4Xi.=.=.y.i.@./ ] =.=.r.X.G l y 4 5 [ u.;.=.e * 9 b C ",
"FX0X+.v.$XpXaXBXCXMXMXVXBXVXNXnXbXjXbXjXjX5X XjXhXcXMXbXlX+XK.;.' =.7.h.4X}.~.h.u.;.<.[ [ -.<.<.<. .H D y 5 p h.2.) G.H * 8 v C ",
"BX_.$.M.qXiXpXBXBXMXcXVXBXVXVXVXvXnXbXbXjX8XjXlXlXMXnXjX8X+Xj.&.' o.u.u.~.}.|.}.!.u.u.<.5.5.7.7.<.[ _ H e w [ 6.) ,.[. .= 7 v n ",
"FXpX0.M.eXuXiXMXcXcXaXMXVXVXVXVXVXnXbXjX5XkXzXvXNXNXyX.X@X8Xj.;.' [ u.u.h.~./.4X}.!.D.b.y.b.u.t.<.X._ H e w [ &.>.F..XX., 8 v M ",
"GXcXr.v.eXuXkXMXcXMXcXMXMXnXnXkXnXlXzXkXnXbXMXMXvXkXwX5X8XgXU.;./ ] u.Z.D.H.j.~.^.^.D.m.u.t.b.u.r.#.H D 5 r ] 8.f.H.7Xi.4 7 v C ",
"cX'.,.v.tXiXMXMXMXBXMXMXMXnXzXvXkXlXlXlXzXzXNXBXcXkX%XgXgX7X^.;.] ] t.A.A.H.F.h.D.!.G.D.Z.b.y.t.1.O._ D q i &.(.u.f.@XQ.y 8 b Z ",
"jX7Xr.0.eXiXdXMXBXBXBXBXVXNXNXmXzXzXzXlX7XzXBXNXcXwX&XlXzXlXgX^.&.] 5.A.H.F.!.D.h.F.~.D.D.b.t.7.,..._ D r i 6.(.d.d.8Xm.4 8 n Z ",
"lXNXV.l.0XpXMXCXZXFXGXZXVXNXNXzXlXnXzXlXzXmXNXNXiXwXvXAXGXGXnX+X6.] ;.g.L.F.F.g.A.H.!.H.D.m.u.5.,...z j r g D.|.D.3.@XX.1 8 b C ",
"+XlXtX0.0XuXdXCXHXGXGXAXVXVXBXmXmXlXzXmXzXvXVXMXyXkXNXGXJXZXzX@X<.p &.h.L.P.L.L.F.L.F.H.!.D.u.5.:.X.H h q / Z.|.F.2. Xp , 8 x b ",
"P.'.yXm.V.uXdXCXZXGXGXZXAXAXBXNXnXzXkXlXzXNXNXvXkXMXiXBXVXjX.X!.X.g &.g.L.L.L.I.L.L.L.H.H.D.u.<.#.| l r r o.^.7X/.3.u.= , 7 9 v ",
"[.L..X0XM.0XuXCXZXZXGXGXAXAXAXVXNXmXvXNXvXvXvXkXMXbXt.qXkX X'.o.] / 2.F.^.^.(.P.^.F.L.F.H.Z.u.>.#.H f r k &.}.6XP.7.L @ * 3 8 v ",
"iX XZ.qXv.9XeXBXBXZXGXGXAXAXAXAXNXNXNXzXvXvXvXhXwX|.-.jXtXQ.&.g &.( f.L.^.I.(.L.L.L.P.H.F.u.u.<.X.l t r ' [ ^./.h.#.2 . * < 3 9 ",
"iXNX&XbX`.<X9XpXdXBXZXAXAXAXAXBXNXNXvXvXvXvXvXlXwX'. XrX4Xi.] [ ) &.Z.I.U.I.(.I.L.!.A.H.A.D.7.:.| j 5 a [ [ f.F.t.D o . & * , 3 ",
"tXBXVXkX$X`.9XeXdXBXBXFXBXZXvXmXNXNXmX;XmXmXlXlXhX8X.X%X Xm.=.@.&.6.f.L.E.I.(.L.L.I.H.F.Z.7.1.#.G j q k / =.D.u.#.5 . o + @ @ % ",
"NXAXNXVXyXV.9XeXaXBXBXBXFXBXFXvXvXvXvXlX;X;X;X;XkXvXkXiX XG.u.t.d.s.6.A.I.^.].].'.I.H.F.8.4.:.| k a p / =.u.1.5.@.# o . . . . o ",
"ZXSXVXVXsXV.9XqXaXcXaXFXBXFXvXvXvXxXlX;X-X-X-X.XwXyXkXyX X[.Q.t.u.u.u.6.Z.I.K.E.R.I.A.Z.k.>...| j a G =.H.y.=.u.j . . . .   . o ",
"SXBXZXGXVX_.9XqXpXcXcXxXFXvXvXvXlX;X;X;X-X&X@X.XfXhXkXfX X.X XQ.m.m.u.6.d.A.J.J.F.Z.A.d.4.:..._ j h [ F.F.y.#.,.4 . . . . . . o ",
"<XSXZXBXiXN._.iXpXaXFXFXFXvXvXvX;XhXlX;X.X&X.X XfXlXgX@XE..X.X!.F.G.u.u.8.f.C.A.A.A.C.7.>.&...z j f :.H.H.t.,.a o o o . . . . + ",
"w.<X0X3XB.w.V.tX%XFXaXaXxXxXvXxXlX-X&XwXwX.XhXlXfXgX@XoX(.].|.I.F.!.D.u.t.8.8.k.k.A.d.>.:.*...( f ( *.H.^.b.v.5 . o o . . . o , ",
"q.q.w.x.w.w.B.qXpXaXcXcXxXxXxXxXxX;XrXxXhXhXlXlXgX+X+X+XXXL.g.g.f.F.~.G.m.b.k.8.3.C.8.2.:.:.X.z p o.G.!.).m.9.& o o . . . . @ 2 ",
"^ q.e.:X:Xx.B.9XaXcXaXaXxXxX*XxXcXcXxXxXvXvX-XoXP.g.j.j.+X(.a.d.6.s.f.h.D.m.b.7.k.7.7.>.:.O.| l t %._.).!.m.y . . . . . . X & 7 ",
"q.q.q.:Xx.x.c.$XuXaXaXaXaXrX*X*XxXxXrX&X&X^.h.h././././.j.h.;.;.j.;.;.;.b.n.n.k.4.k.k.:.&.l.| l 4 y 0.M.0.m X . . . + . . o 1 9 ",
"^ e.e.e.z.x.c.9XrXaXcXaXxX*X*XxX;X&XF.u.h.h.i.sXSXSXKXjXyXJX!.^.j.j.;.=.>.S.S.k.4.O.:.:.:.O.| j * @ = , * + . + + . . . . + 3 0 ",
"e.e.e.:Xx.x.x.$XeXdXcXaXaX*X*XxX;XR.F.f.h.a.j.j.3XSXKXSXJXKX7XXXj.i.;.[ &.*.n.C.4.O.k.O.k...| a @ @ & + + + + + + . . . + & 7 b ",
"e.e.^ :Xx.x.x.B.qXaXdXcXaXpX*X*X*X&X.X}././.+Xj.p.j.j.j.h.j.p.p.} } a.=.>.5.T.S.:.:.:.k.:.O.z q & $ $ + o + + + + . . . + , 9 n ",
"^ e.:X:X:Xz.z.c.pX*XaXcX*XpX%XpX*XxX&X'.|.7X7X8X6X6X6X6Xj.XXj.j.a.;.;.i.2.k.T.k.:.k.:.:.k...l > O $ $ + $ + + + + + . o @ 3 0 M ",
"^ ^ ^ :X:Xz.x.c.1XpXaXaXpX*X*X*X;XhX&X[..XfXhXjXjXyX+X8X6X/.j.h.h.h.t.;.2.k.Z.k.:.:.k.:.:...f : $ $ + $ + + + + + + + + & 7 x M ",
"e.e.^ e.e.x.x.z.B.pXpXcXcX*X*XpXhXhXhX&X*XrXhXfXjXyX.X.X|.].'.F.Z.Z.6.5.>.4.k.k.O.O.k.O.O...d % & $ + + + + + + + + + @ 1 9 n Z ",
"e.e.:X:X:Xx.x.e.B.pXpXdX*X$X$X%XhXrXrXwXfXhXhX&X5X5X.X.X'.[.'.A.Z.b.8.<.:.4.%.:.:.k.v.O.l.H e $ & $ + + $ + $ $ @ & * < 7 x M K ",
"e.e.e.>Xx.z.x.x.x.V.pXpXpX*X$X*XaXrXxXhXkXrXhX&X&X&X X[.T.T.T.S.Z.Z.7.7.<.>.:.*.:.k.:.:.X.j % $ $ $ $ + $ + $ ; , 1 2 7 c M K T ",
"~ e.~ z.z.x.x.x.x.c.$X$XpXxX*X$X*XrXrXxXcXhXfX&X&X{.[.T.H.S.K.H.S.S.b.7.5.<.*.O.O.k.:.O.| a $ $ $ $ + + + $ & 1 3 7 9 s M A T W ",
"^ ^ z.z.z.z.x.x.x.x.B.pXpX*X*X$XrXaXaXxXvXhXhXfX&X X].R.J.J.H.H.S.Z.k.k.t.7.&.O.:.:.O.O.F : ; $ $ + + + + $ ; 3 8 0 c M Z K W ^ ",
"^ z.~ x.x.z.z.x.x.x.c.$X*XpXpX*XaXxXaXxXcXhXhXhXfX@X{.[.K.H.R.K.A.Z.b.b.b.>.O.O.:.l.X.H 6 $ @ $ $ $ $ + $ $ 2 3 0 b M B K T q.e.",
"^ e.^ z.x.x.z.x.x.>Xc.1X$X$X*XpXpXpXpXpXhXhXhXwXfX&X|.].I.H.H.F.S.Z.b.b.m.:.X...O.O.| a $ $ $ $ + + + + @ & 3 9 x M A K K E Q w.",
"e.^ ^ z.x.z.x.x.x.>Xc.0X$X$X$X$XpXpXpXpXhXwX&XfX&X-X@X.X].H.S.A.S.C.k.b.1.#.X...O.| j > $ $ $ $ $ + + $ @ * 3 0 n Z K T Q ^ w.q.",
"z.^ q.:Xz.x.x.x.x.>Xc.pXpX$X$X0X0XpXpXiXaXrXqXrXhXjX.X.X{.'.S.Z.k.k.k.t.,.@... .U f e > $ & $ $ $ $ + $ $ * 7 v M A T E Q w.w.w.",
"^ ^ e.^ x.x.c.x.x.x.x.0XpXpX$X$X0X0XsXpXpXuXiXtXrX&X{.{.'.R.S.S.b.b.v.v.%.@.| H f r q 2 $ & $ $ + $ + + & 1 8 b C A T Q Q w.w.w."
};
